<svg xmlns="http://www.w3.org/2000/svg" width="720" height="280" viewBox="0 0 720 280">
<rect width="100%" height="100%" fill="#fafafa"/>
<text x="56" y="18" font-family="sans-serif" font-size="14" font-weight="600" fill="#111">node1 CPU</text>
<text x="14" y="134.0" font-family="sans-serif" font-size="11" fill="#555" transform="rotate(-90 14,134.0)">%</text>
<line x1="56" y1="28" x2="56" y2="240" stroke="#ccc"/>
<line x1="56" y1="240" x2="704" y2="240" stroke="#ccc"/>
<line x1="56" y1="240.0" x2="704" y2="240.0" stroke="#eee"/>
<text x="50" y="244.0" text-anchor="end" font-family="sans-serif" font-size="10" fill="#666">0</text>
<line x1="56" y1="187.0" x2="704" y2="187.0" stroke="#eee"/>
<text x="50" y="191.0" text-anchor="end" font-family="sans-serif" font-size="10" fill="#666">25</text>
<line x1="56" y1="134.0" x2="704" y2="134.0" stroke="#eee"/>
<text x="50" y="138.0" text-anchor="end" font-family="sans-serif" font-size="10" fill="#666">50</text>
<line x1="56" y1="81.0" x2="704" y2="81.0" stroke="#eee"/>
<text x="50" y="85.0" text-anchor="end" font-family="sans-serif" font-size="10" fill="#666">75</text>
<line x1="56" y1="28.0" x2="704" y2="28.0" stroke="#eee"/>
<text x="50" y="32.0" text-anchor="end" font-family="sans-serif" font-size="10" fill="#666">100</text>
<text x="56.0" y="258" text-anchor="middle" font-family="sans-serif" font-size="10" fill="#666">0s</text>
<text x="218.0" y="258" text-anchor="middle" font-family="sans-serif" font-size="10" fill="#666">4s</text>
<text x="380.0" y="258" text-anchor="middle" font-family="sans-serif" font-size="10" fill="#666">7s</text>
<text x="542.0" y="258" text-anchor="middle" font-family="sans-serif" font-size="10" fill="#666">10s</text>
<text x="704.0" y="258" text-anchor="middle" font-family="sans-serif" font-size="10" fill="#666">14s</text>
<polyline fill="none" stroke="#2563eb" stroke-width="2" points="56.0,226.5 102.3,217.4 148.6,206.2 194.9,200.5 241.1,219.2 287.4,212.8 333.7,211.4 380.0,217.2 426.3,215.8 472.6,221.1 518.9,221.7 565.1,223.6 611.4,220.4 657.7,224.7 704.0,220.6"/>
<text x="64" y="272" font-family="sans-serif" font-size="11" fill="#2563eb">cpu</text>
</svg>