<svg xmlns="http://www.w3.org/2000/svg" width="720" height="280" viewBox="0 0 720 280">
<rect width="100%" height="100%" fill="#fafafa"/>
<text x="56" y="18" font-family="sans-serif" font-size="14" font-weight="600" fill="#111">node3 RX</text>
<text x="14" y="134.0" font-family="sans-serif" font-size="11" fill="#555" transform="rotate(-90 14,134.0)">Mbps</text>
<line x1="56" y1="28" x2="56" y2="240" stroke="#ccc"/>
<line x1="56" y1="240" x2="704" y2="240" stroke="#ccc"/>
<line x1="56" y1="240.0" x2="704" y2="240.0" stroke="#eee"/>
<text x="50" y="244.0" text-anchor="end" font-family="sans-serif" font-size="10" fill="#666">0</text>
<line x1="56" y1="187.0" x2="704" y2="187.0" stroke="#eee"/>
<text x="50" y="191.0" text-anchor="end" font-family="sans-serif" font-size="10" fill="#666">95</text>
<line x1="56" y1="134.0" x2="704" y2="134.0" stroke="#eee"/>
<text x="50" y="138.0" text-anchor="end" font-family="sans-serif" font-size="10" fill="#666">189</text>
<line x1="56" y1="81.0" x2="704" y2="81.0" stroke="#eee"/>
<text x="50" y="85.0" text-anchor="end" font-family="sans-serif" font-size="10" fill="#666">284</text>
<line x1="56" y1="28.0" x2="704" y2="28.0" stroke="#eee"/>
<text x="50" y="32.0" text-anchor="end" font-family="sans-serif" font-size="10" fill="#666">378</text>
<text x="56.0" y="258" text-anchor="middle" font-family="sans-serif" font-size="10" fill="#666">0s</text>
<text x="218.0" y="258" text-anchor="middle" font-family="sans-serif" font-size="10" fill="#666">4s</text>
<text x="380.0" y="258" text-anchor="middle" font-family="sans-serif" font-size="10" fill="#666">9s</text>
<text x="542.0" y="258" text-anchor="middle" font-family="sans-serif" font-size="10" fill="#666">14s</text>
<text x="704.0" y="258" text-anchor="middle" font-family="sans-serif" font-size="10" fill="#666">18s</text>
<polyline fill="none" stroke="#2563eb" stroke-width="2" points="56.0,240.0 92.0,240.0 128.0,169.4 164.0,44.1 200.0,44.1 236.0,43.7 272.0,43.8 308.0,47.4 344.0,78.5 380.0,78.6 416.0,91.3 452.0,124.6 488.0,148.8 524.0,193.9 560.0,193.9 596.0,193.8 632.0,193.9 668.0,194.3 704.0,240.0"/>
<text x="64" y="272" font-family="sans-serif" font-size="11" fill="#2563eb">enp6s20</text>
<polyline fill="none" stroke="#dc2626" stroke-width="2" points="56.0,240.0 92.0,240.0 128.0,240.0 164.0,240.0 200.0,240.0 236.0,240.0 272.0,240.0 308.0,240.0 344.0,240.0 380.0,240.0 416.0,240.0 452.0,240.0 488.0,240.0 524.0,240.0 560.0,240.0 596.0,240.0 632.0,240.0 668.0,240.0 704.0,240.0"/>
<text x="174" y="272" font-family="sans-serif" font-size="11" fill="#dc2626">enp6s21</text>
</svg>